<svg id="Layer_1" data-name="Layer 1" xmlns="http://www.w3.org/2000/svg" viewBox="0 0 512 512"><title>checked-notepad-flat</title><rect width="512" height="512" fill="#c0ca33"/><path d="M366,91H274.33a18.33,18.33,0,1,1-36.67,0H146a36.77,36.77,0,0,0-36.67,36.67V421A36.77,36.77,0,0,0,146,457.66H366A36.77,36.77,0,0,0,402.66,421V127.67A36.77,36.77,0,0,0,366,91Z" fill="#404040"/><path d="M366,430.16H146c-5.5,0-9.17-3.67-9.17-9.17V127.67c0-5.5,3.67-9.17,9.17-9.17H366c5.5,0,9.17,3.67,9.17,9.17V421C375.16,426.5,371.5,430.16,366,430.16Z" fill="#ffd54f"/><path d="M274.33,91a18.33,18.33,0,1,1-36.67,0H173.5v36.67A18.39,18.39,0,0,0,191.83,146H320.17a18.39,18.39,0,0,0,18.33-18.33V91Z" fill="#ff7043"/><path d="M256,54.34A36.67,36.67,0,1,0,292.67,91,36.77,36.77,0,0,0,256,54.34Zm0,55A18.33,18.33,0,1,1,274.33,91,18.39,18.39,0,0,1,256,109.34Z" fill="#ff7043"/><polygon points="316.5 224.83 234 307.33 195.5 267.92 172.59 290.83 234.92 352.25 339.42 247.75 316.5 224.83" fill="#ff7043"/></svg>